# xmcd
#
# Track frame offsets:
#  150
#  19722
#  33867
#  48206
#  64482
#  82002
#  98086
#  116637
#  135031
#  153656
#  174691
#  190956
#
# Disc length: 2822 seconds
#
# Revision: 0
# Processed by: cddbd v1.5.1PL2 Copyright (c) Steve Scherf et al.
# Submitted via: Collectorz.com_Music_Collector 6.11
#
DISCID=980b040c
DTITLE=Hammond Jr., John - In Your Arms Again
DYEAR=2005
DGENRE=Blues
TTITLE0=Jitterbug Swing
TTITLE1=I Got A Woman
TTITLE2=In Your Arms Again
TTITLE3=I'm Leavin' You
TTITLE4=Fool For You
TTITLE5=Evil (Is Going On)
TTITLE6=Come To Find Out
TTITLE7=You Got Me Crying
TTITLE8=Serve Me Right To Suffer
TTITLE9=Moanin' For My Baby
TTITLE10=My Baby's Gone
TTITLE11=I'll Be Your Baby Tonight
EXTD=
EXTT0=
EXTT1=
EXTT2=
EXTT3=
EXTT4=
EXTT5=
EXTT6=
EXTT7=
EXTT8=
EXTT9=
EXTT10=
EXTT11=
PLAYORDER=
